# Apple ModelIO OBJ File: BotePastillas
mtllib BotePastillas.mtl
g Bote_-_Low_Poly_Cylinder.001_None.008_None.008
v -0.040161 0.030104 0.007988
v -0.020565 0.031394 0.030776
v -0.036304 0.031394 0.007221
v -0.040616 -0.00661 0.008079
v -0.030075 -0.007234 -0.020095
v -0.035476 -0.007234 0.007056
v -0.034433 -0.006611 -0.023007
v -0.007057 -0.007234 -0.035475
v -0.008079 -0.006611 -0.040616
v 0.020095 -0.007234 -0.030074
v 0.040615 -0.006611 -0.00808
v 0.023007 -0.006611 -0.034433
v 0.034432 -0.00661 0.023006
v 0.035475 -0.007234 -0.007056
v 0.008079 -0.00661 0.040615
v 0.030074 -0.007234 0.020095
v 0.022749 0.030104 -0.034046
v -0.007057 -0.120521 -0.035475
v 0.035475 -0.120521 -0.007056
v 0.007056 -0.120521 0.035475
v 0.007221 0.031394 0.036303
v -0.020214 0.035471 0.030252
v -0.007989 0.030104 -0.04016
v -0.022749 0.030104 0.034046
v 0.036303 0.031394 -0.007221
v 0.030252 0.035471 0.020214
v 0.030777 0.031394 0.020565
v -0.034047 0.030104 -0.022749
v 0.007988 0.030104 0.04016
v 0.04016 0.030104 -0.007988
v 0.020564 0.031394 -0.030777
v 0.006333 0.037397 0.031842
v -0.018037 0.037397 0.026994
v -0.023007 -0.00661 0.034431
v 0.034046 0.030104 0.022748
v -0.031842 0.037397 0.006334
v 0.031841 0.037397 -0.006335
v -0.006334 0.037397 -0.031842
v -0.007222 0.031394 -0.036305
v -0.030253 0.035471 -0.020215
v -0.007098 0.035471 -0.035686
v 0.007098 0.035471 0.035684
v 0.020214 0.035471 -0.030252
v -0.035685 0.035471 0.007097
v 0.035685 0.035471 -0.007098
v -0.030777 0.031394 -0.020565
v -0.026994 0.037397 -0.018038
v 0.018037 0.037397 -0.026994
v 0.026994 0.037397 0.018037
v -0.020095 -0.007234 0.030075
v 0.007056 -0.007234 0.035475
v -0.035476 -0.120521 0.007056
v -0.020095 -0.120521 0.030075
v 0.030074 -0.120521 0.020095
v 0.020095 -0.120521 -0.030074
v -0.030075 -0.120521 -0.020095
vn -0.2782 0.9424 0.1859
vn -0.2783 0.9423 0.1859
vn -0.1254 -0.9918 -0.0249
vn -0.1252 -0.9918 -0.0249
vn -0.0709 -0.9918 -0.1061
vn 0.0249 -0.9918 -0.1252
vn 0.1061 -0.9918 -0.0709
vn 0.1253 -0.9918 0.0249
vn 0.1252 -0.9918 0.0249
vn 0.071 -0.9918 0.1063
vn 0.8314 0.0117 -0.5555
vn -0 -1 -0
vn -0.1931 0.1416 0.9709
vn -0.5555 0.0117 -0.8314
vn -0.0653 0.9424 0.3282
vn 0.9709 0.1414 0.1931
vn 0.9709 0.1416 0.1931
vn -0.9807 0.0117 -0.1951
vn 0.1859 0.9424 0.2782
vn 0.186 0.9423 0.2783
vn 0.3283 0.9423 0.0653
vn 0.3282 0.9424 0.0653
vn 0.2782 0.9424 -0.1859
vn 0.2782 0.9423 -0.1859
vn -0.0916 0.8828 0.4607
vn -0.8314 0.0117 0.5555
vn -0.1951 0.0117 0.9807
vn -0.1951 0.0116 0.9807
vn 0.5555 0.0117 0.8314
vn -0.3906 0.8828 0.261
vn -0.3905 0.8828 0.2609
vn -0 1 -0
vn -0.55 0.1416 -0.8231
vn -0.55 0.1414 -0.8231
vn -0.55 0.1417 -0.8231
vn 0.55 0.1417 0.8231
vn 0.55 0.1416 0.8231
vn 0.1931 0.1416 -0.9709
vn 0.1931 0.1415 -0.9709
vn -0.8231 0.1417 0.55
vn -0.8231 0.1416 0.55
vn 0.8231 0.1414 -0.55
vn 0.8231 0.1415 -0.55
vn -0.9709 0.1414 -0.1931
vn -0.9709 0.1416 -0.1931
vn 0.1951 0.0117 -0.9807
vn -0.3285 0.9422 -0.0653
vn 0.9807 0.0117 0.1951
vn -0.186 0.9423 -0.2783
vn -0.1859 0.9424 -0.2782
vn -0.4606 0.8829 -0.0916
vn -0.4606 0.8828 -0.0916
vn -0.4607 0.8828 -0.0916
vn -0.2609 0.8829 -0.3905
vn -0.2609 0.8828 -0.3905
vn 0.0916 0.8828 -0.4606
vn 0.0916 0.8829 -0.4606
vn 0.3905 0.8829 -0.2609
vn 0.3905 0.8828 -0.2609
vn 0.4606 0.8828 0.0916
vn 0.4606 0.8829 0.0916
vn 0.2609 0.8828 0.3905
vn -0.0249 -0.9918 0.1254
vn -0.1059 -0.9919 0.0708
vn -0.8315 -0 0.5556
vn 0.0653 0.9423 -0.3283
vn 0.0653 0.9423 -0.3282
vn 0.5556 -0 0.8315
vn 0.9808 -0 0.1951
vn 0.8315 -0 -0.5556
vn 0.1951 -0 -0.9808
vn -0.5556 -0 -0.8315
vn -0.9808 -0 -0.1951
vn -0.1951 -0 0.9808
vn 0.1254 -0.9918 0.0249
vn 0.9709 0.1413 0.1931
vn 0.0916 0.8828 -0.4607
vn 0.4607 0.8828 0.0916
vt 0.355992 0.608742
vt 0.28188 0.514077
vt 0.362015 0.594209
vt 0.48378 0.306085
vt 0.365019 0.286716
vt 0.475758 0.286717
vt 0.356995 0.306086
vt 0.286715 0.208411
vt 0.267346 0.216432
vt 0.286717 0.097671
vt 0.356996 0
vt 0.267346 0.089647
vt 0.483781 -0
vt 0.365021 0.019368
vt 0.573431 0.08965
vt 0.475758 0.01937
vt 0.764505 0.972706
vt 0.912731 0.848359
vt 0.911248 0.975133
vt 0.267346 0.645625
vt 0.078302 0.72393
vt 0 0.534889
vt 0.553664 0.608742
vt 0.565968 0.689842
vt 0.549561 0.688875
vt 0.001483 0.72393
vt 0.146759 0.851712
vt 0 0.850708
vt 0.267346 0.520094
vt 0.28188 0.400751
vt 0.893651 0.226894
vt 0.873216 0.149091
vt 0.889553 0.146757
vt 0.762475 0.669009
vt 0.913771 0.756944
vt 0.767062 0.75866
vt 0.267346 0.394732
vt 0.36201 0.320616
vt 0.481355 0.306086
vt 0.475336 0.32062
vt 0.570001 0.39473
vt 0.555471 0.400751
vt 0.267347 0.687508
vt 0.352109 0.623223
vt 0.281828 0.693506
vt 0.909232 0.668298
vt 0.762475 0.542226
vt 0.909232 0.542933
vt 0.913771 0.454288
vt 0.99929 0.146757
vt 0.873216 0
vt 1 0
vt 0.281825 0.792901
vt 0.52179 0.69351
vt 0.451506 0.863189
vt 0.166665 0.837255
vt 0.183071 0.724896
vt 0.183071 0.836292
vt 0.150258 0.724897
vt 0.166665 0.72393
vt 0.893651 0.340219
vt 0.873216 0.418019
vt 0.877244 0.339251
vt 0.565968 0.801234
vt 0.549561 0.802201
vt 0.877244 0.227858
vt 0.553664 0.882331
vt 0.570001 0.880002
vt 0.150258 0.940407
vt 0.003538 0.940407
vt 0.481357 0.608742
vt 0.475337 0.594208
vt 0.765971 0.847351
vt 0.909191 0.75866
vt 0.570001 0.520095
vt 0.555472 0.514077
vt 0.352111 0.863187
vt 0.267346 0.798901
vt 0.457506 0.877669
vt 0.34611 0.87767
vt 0.521791 0.792903
vt 0.536272 0.798901
vt 0.451508 0.623223
vt 0.536273 0.687508
vt 0.346114 0.608742
vt 0.457506 0.608742
vt 0.554063 0.208411
vt 0.554061 0.097675
vt 0.573428 0.216435
vt 0.873216 0.452572
vt 0.762475 0
vt 0.189042 0.452572
vt 0.078304 -0
vt 0.189042 -0
vt 0.267346 0.456582
vt 0.267346 0.004009
vt 0.651737 0.460585
vt 0.762475 0.913158
vt 0.651737 0.913158
vt 0.573431 0.45658
vt 0.573431 0.909154
vt 0.651737 0.004007
vt 0.762475 0.45658
vt 0.651737 0.45658
vt 0.573431 -0
vt 0.573431 0.452573
vt 0 0.004009
vt 0.078304 0.452572
vt 0 0.456582
vt 0.0783 0.456585
vt 0.189041 0.456582
vt 0.267345 0.534887
vt 0.18904 0.72393
vt -0 0.645627
vt 0.570001 0.611074
vt 0.148226 0.726358
vt 0.355993 0.306087
vt 0.767066 0.452572
vt 0.873925 0.146757
vt 0.150258 0.836289
vt 0.889553 0.420353
vt 0.762475 0.75866
vt 0.762475 0.452572
vt 0.762475 0.460585
vt 0.762475 0.004007
usemtl None.008
f 1/1/1 2/2/2 3/3/1
f 4/4/3 5/5/4 6/6/3
f 7/7/5 8/8/5 5/5/5
f 9/9/6 10/10/6 8/8/6
f 11/11/7 10/10/7 12/12/7
f 13/13/8 14/14/9 11/11/9
f 15/15/10 16/16/10 13/13/10
f 17/17/11 11/18/11 12/19/11
f 18/20/12 19/21/12 20/22/12
f 21/23/13 22/24/13 2/25/13
f 7/26/14 23/27/14 9/28/14
f 24/29/15 21/30/15 2/2/15
f 25/31/16 26/32/17 27/33/17
f 4/34/18 28/35/18 7/36/18
f 29/37/19 27/38/20 21/30/19
f 27/38/21 30/39/22 25/40/22
f 25/40/23 17/41/24 31/42/24
f 22/43/25 32/44/25 33/45/25
f 1/46/26 34/47/26 24/48/26
f 34/47/27 29/49/27 24/48/28
f 35/50/29 15/51/29 13/52/29
f 36/53/30 22/43/31 33/45/31
f 37/54/32 38/55/32 36/53/32
f 39/56/33 40/57/34 41/58/35
f 27/56/36 42/59/37 21/60/37
f 31/61/38 41/62/39 43/63/38
f 2/25/40 44/64/41 3/65/41
f 25/31/42 43/63/43 45/66/42
f 46/67/44 44/64/45 40/68/44
f 9/28/46 17/69/46 12/70/46
f 28/71/47 3/3/47 46/72/47
f 30/73/48 13/74/48 11/18/48
f 23/75/49 46/72/50 39/76/49
f 47/77/51 44/78/52 36/53/53
f 47/77/54 41/79/55 40/80/54
f 48/81/56 41/79/56 38/55/57
f 37/54/58 43/82/59 48/81/59
f 49/83/60 45/84/61 37/54/61
f 49/83/62 42/85/62 26/86/62
f 15/15/63 50/87/63 51/88/63
f 34/89/64 6/6/64 50/87/64
f 50/90/65 52/91/65 53/51/65
f 23/75/66 31/42/66 17/41/67
f 16/92/68 20/93/68 54/94/68
f 14/95/69 54/94/69 19/96/69
f 10/97/70 19/98/70 55/99/70
f 8/100/71 55/99/71 18/101/71
f 5/102/72 18/103/72 56/104/72
f 6/105/73 56/104/73 52/106/73
f 53/107/74 51/108/74 50/109/74
f 1/1/1 24/29/2 2/2/2
f 4/4/3 7/7/4 5/5/4
f 7/7/5 9/9/5 8/8/5
f 9/9/6 12/12/6 10/10/6
f 11/11/7 14/14/7 10/10/7
f 13/13/8 16/16/75 14/14/9
f 15/15/10 51/88/10 16/16/10
f 17/17/11 30/73/11 11/18/11
f 20/22/12 53/110/12 52/111/12
f 52/111/12 56/112/12 18/20/12
f 18/20/12 55/113/12 19/21/12
f 19/21/12 54/114/12 20/22/12
f 20/22/12 52/111/12 18/20/12
f 21/23/13 42/115/13 22/24/13
f 7/26/14 28/116/14 23/27/14
f 24/29/15 29/37/15 21/30/15
f 25/31/16 45/66/76 26/32/17
f 4/34/18 1/46/18 28/35/18
f 29/37/19 35/117/20 27/38/20
f 27/38/21 35/117/21 30/39/22
f 25/40/23 30/39/23 17/41/24
f 22/43/25 42/85/25 32/44/25
f 1/46/26 4/34/26 34/47/26
f 34/47/27 15/118/27 29/49/27
f 35/50/29 29/119/29 15/51/29
f 36/53/30 44/78/30 22/43/31
f 36/53/32 33/45/32 32/44/32
f 32/44/32 49/83/32 37/54/32
f 37/54/32 48/81/32 38/55/32
f 38/55/32 47/77/32 36/53/32
f 36/53/32 32/44/32 37/54/32
f 39/56/33 46/60/34 40/57/34
f 27/56/36 26/120/36 42/59/37
f 31/61/38 39/121/39 41/62/39
f 2/25/40 22/24/40 44/64/41
f 25/31/42 31/61/43 43/63/43
f 46/67/44 3/65/45 44/64/45
f 9/28/46 23/27/46 17/69/46
f 28/71/47 1/1/47 3/3/47
f 30/73/48 35/122/48 13/74/48
f 23/75/49 28/71/50 46/72/50
f 47/77/51 40/80/51 44/78/52
f 47/77/54 38/55/55 41/79/55
f 48/81/56 43/82/77 41/79/56
f 37/54/58 45/84/58 43/82/59
f 49/83/60 26/86/78 45/84/61
f 49/83/62 32/44/62 42/85/62
f 15/15/63 34/89/63 50/87/63
f 34/89/64 4/4/64 6/6/64
f 50/90/65 6/123/65 52/91/65
f 23/75/66 39/76/66 31/42/66
f 16/92/68 51/108/68 20/93/68
f 14/95/69 16/92/69 54/94/69
f 10/97/70 14/124/70 19/98/70
f 8/100/71 10/97/71 55/99/71
f 5/102/72 8/125/72 18/103/72
f 6/105/73 5/102/73 56/104/73
f 53/107/74 20/93/74 51/108/74
s off
