# Apple ModelIO OBJ File: puff
mtllib puff.mtl
g Puff_Sphere.003_None.004
v -2.29174 0.034522 2.70336
v -2.07113 0.036452 2.81115
v -2.19511 -0.071234 2.972
v -2.34406 -0.067531 2.90757
v -2.30796 0.639255 3.0568
v -2.20653 0.643656 3.10772
v -2.28941 0.500306 2.80695
v -2.11292 0.499658 2.90284
v -2.3674 -0.077023 3.10245
v -2.29153 -0.085014 3.13576
v -2.02049 0.341985 2.75794
v -2.26986 0.348991 2.64221
v -2.45481 -0.070392 3.10351
v -2.4099 -0.096281 3.32326
v -2.348 0.929824 3.26761
v -2.3215 0.929619 3.29843
v -2.2924 0.838358 3.22013
v -2.24399 0.845069 3.26921
v -2.46084 0.669936 3.04388
v -2.44175 0.860999 3.15462
v -2.35706 0.841417 3.1848
v -2.51129 -0.061874 2.90443
v -2.40801 0.987201 3.33846
v -2.30736 0.932312 3.33454
v -1.98784 0.511653 3.06982
v -1.86291 0.34258 2.97439
v -1.9245 0.050628 3.00028
v -2.23975 -0.090621 3.19531
v -2.21526 -0.092936 3.27137
v -2.09123 -0.071114 3.08904
v -2.12739 0.663912 3.20439
v -1.93041 0.52808 3.26084
v -1.81423 0.341482 3.21531
v -2.30721 0.93675 3.37181
v -2.21822 0.851217 3.33346
v -2.21977 0.857904 3.4006
v -1.87136 0.067278 3.21535
v -2.04406 -0.069549 3.23448
v -2.08513 0.678653 3.32642
v -2.32067 0.943635 3.40571
v -2.24293 0.871674 3.46139
v -1.85592 0.330941 3.43997
v -1.89471 0.073218 3.42597
v -2.04894 -0.065074 3.38826
v -2.09133 0.685327 3.43948
v -1.95326 0.52422 3.43834
v -2.21716 -0.093779 3.35474
v -2.34764 0.953249 3.43388
v -1.94662 0.334644 3.64279
v -1.97215 0.078895 3.62264
v -2.10013 -0.064558 3.53377
v -2.12472 0.710326 3.53942
v -2.02143 0.535095 3.59686
v -2.24408 -0.095727 3.43399
v -2.29385 0.889166 3.51725
v -2.0897 0.336658 3.81386
v -2.1087 0.078658 3.78065
v -2.38599 0.96558 3.45216
v -2.19524 -0.059732 3.64763
v -2.21127 0.736084 3.64485
v -2.14439 0.55145 3.74498
v -2.2932 -0.09316 3.49445
v -2.3684 0.9081 3.55711
v -2.43054 0.980424 3.45507
v -2.29686 0.076926 3.86428
v -2.3243 -0.055807 3.70959
v -2.33976 0.757915 3.72512
v -2.30844 0.570708 3.84148
v -2.35875 -0.086288 3.52792
v -2.29185 0.335788 3.90166
v -2.45542 0.927343 3.56467
v -2.50308 0.06695 3.85858
v -2.47036 -0.051641 3.71181
v -2.49016 0.771494 3.7301
v -2.50476 0.571276 3.82946
v -2.43559 -0.078238 3.53144
v -2.51238 0.320454 3.88635
v -2.47468 0.997157 3.43976
v -2.54446 0.950036 3.53765
v -2.6969 0.051309 3.7781
v -2.61415 -0.053118 3.65939
v -2.64097 0.78526 3.67811
v -2.69956 0.576602 3.76608
v -2.51405 -0.070392 3.50586
v -2.71912 0.312642 3.80067
v -2.5106 1.01179 3.40579
v -2.62123 0.974227 3.47804
v -2.7633 0.795002 3.56961
v -2.84963 0.580707 3.62864
v -2.72924 -0.059877 3.55847
v -2.57804 -0.067043 3.45451
v -2.90186 0.310711 3.66644
v -2.86398 0.031044 3.64313
v -2.53047 1.01908 3.35629
v -2.66555 0.987177 3.38374
v -2.79426 -0.063742 3.4198
v -2.61561 -0.066838 3.38164
v -2.82959 0.799932 3.41654
v -2.92257 0.579741 3.43399
v -3.0033 0.321624 3.45832
v -2.52904 1.01369 3.30007
v -2.65965 0.977373 3.26962
v -2.96713 0.027528 3.4573
v -2.83495 0.802669 3.25406
v -2.94559 0.589664 3.2271
v -2.80615 -0.060517 3.25641
v -2.62123 -0.065842 3.29652
v -3.01706 0.334722 3.21366
v -2.507 0.995598 3.25354
v -2.60733 0.941765 3.17909
v -2.99129 0.032631 3.22559
v -2.76622 -0.057531 3.09696
v -2.59451 -0.064442 3.21075
v -2.8825 0.590535 3.03716
v -2.96225 0.344602 2.96994
v -2.47118 0.971894 3.22976
v -2.53066 0.896986 3.14419
v -2.95423 0.034245 2.9864
v -2.75811 0.775994 3.12658
v -2.42791 0.950553 3.22874
v -2.73446 0.567214 2.90334
v -2.81597 0.362052 2.74846
v -2.80612 0.036178 2.76807
v -2.66395 -0.055244 2.96991
v -2.62838 0.726489 3.06333
v -2.53558 -0.066047 3.14134
v -2.51278 0.525905 2.81741
v -2.55439 0.363207 2.62413
v -2.38443 0.936024 3.24376
v -2.54916 0.036484 2.67541
vn 0.1906 -0.8881 -0.4182
vn 0.237 0.85 -0.4704
vn -0.0207 -0.9972 -0.0716
vn 0.3163 0.7262 -0.6103
vn -0.0765 -0.9919 -0.1012
vn 0.4179 -0.2118 -0.8835
vn 0.5322 0.6426 -0.5512
vn 0.2574 0.5158 -0.8172
vn -0.0478 -0.998 -0.0416
vn 0.3749 0.5703 -0.7309
vn -0.0614 -0.9932 -0.0984
vn 0.4572 0.8556 -0.2427
vn 0.5647 0.6987 -0.4392
vn 0.7836 -0.2239 -0.5796
vn 0.0083 -0.9994 -0.0331
vn 0.4175 -0.8572 -0.3016
vn 0.4146 0.8074 -0.4199
vn 0.0513 -0.9958 -0.0762
vn 0.5567 0.5802 -0.5945
vn -0.0226 -0.997 -0.0742
vn 0.7685 0.6043 -0.2102
vn 0.6757 0.734 -0.0692
vn 0.9557 -0.2098 -0.2063
vn 0.4729 0.8747 -0.1062
vn 0.5772 -0.8078 -0.1198
vn 0.5977 0.7564 -0.2657
vn 0.115 -0.9925 -0.0406
vn 0.6394 0.701 -0.3159
vn 0.7364 0.5879 -0.3349
vn 0.6476 0.7572 0.0854
vn 0.9733 -0.1793 0.1435
vn 0.4485 0.8938 -0.0034
vn 0.6399 -0.7652 0.0714
vn 0.7343 0.6755 0.0669
vn 0.1519 -0.9882 0.0195
vn 0.8686 0.4702 0.1562
vn 0.0146 -0.9998 -0.0098
vn 0.0153 -0.9998 -0.0144
vn 0.0153 -0.9998 -0.0145
vn 0.7974 0.6033 -0.0105
vn 0.4005 0.9135 0.0716
vn 0.9114 -0.1399 0.3869
vn 0.6262 -0.7389 0.2488
vn 0.7742 0.5927 0.222
vn 0.1668 -0.9846 0.0517
vn 0.8408 0.4103 0.3531
vn 0.5516 0.7941 0.2552
vn 0.0161 -0.9997 -0.0191
vn 0.7768 0.6173 0.1244
vn 0.755 -0.1321 0.6423
vn 0.3509 0.93 0.1089
vn 0.508 -0.7373 0.4453
vn 0.6915 0.5381 0.482
vn 0.1174 -0.9833 0.1388
vn 0.7199 0.3843 0.5779
vn 0.4213 0.8263 0.3737
vn -0.0162 -0.9994 0.0293
vn 0.6494 0.6608 0.3763
vn 0.3187 0.9407 0.1163
vn 0.3208 0.9399 0.1166
vn 0.2707 -0.7518 0.6012
vn 0.4915 0.5315 0.6899
vn 0.0314 -0.984 0.1754
vn 0.4396 0.3115 0.8425
vn 0.2574 0.8554 0.4496
vn 0.3988 -0.1423 0.9059
vn -0.0705 -0.9953 0.0662
vn 0.4625 0.7 0.5441
vn 0.0063 -0.768 0.6404
vn 0.0021 0.4865 0.8737
vn -0.0501 -0.9866 0.1555
vn -0.0718 0.2324 0.97
vn 0.1089 0.8748 0.4721
vn -0.0413 -0.1264 0.9911
vn 0.3167 0.9414 0.1159
vn -0.1006 -0.9922 0.0736
vn 0.1362 0.7286 0.6712
vn -0.189 -0.7908 0.5821
vn -0.2623 0.4404 0.8586
vn -0.065 -0.9924 0.1041
vn -0.3432 0.1819 0.9215
vn -0.0332 0.9083 0.4169
vn -0.375 -0.1129 0.9201
vn 0.2933 0.9508 0.0996
vn -0.1221 -0.99 0.0707
vn -0.1174 -0.9904 0.0735
vn -0.1175 -0.9904 0.0734
vn -0.1203 0.7106 0.6932
vn -0.5901 0.4379 0.6782
vn -0.0336 -0.9975 0.0619
vn -0.6205 0.1867 0.7617
vn -0.1129 -0.9907 0.0761
vn -0.5991 -0.1335 0.7895
vn -0.1832 0.9589 0.2167
vn -0.3096 -0.8292 0.4654
vn 0.2571 0.9656 0.039
vn -0.3973 0.6864 0.6091
vn -0.0196 -0.9995 0.0268
vn -0.8454 0.4093 0.3432
vn -0.8818 0.2677 0.3884
vn -0.2465 0.9643 -0.0967
vn -0.8806 -0.1329 0.4548
vn 0.2391 0.9671 -0.0868
vn -0.4228 -0.8741 0.239
vn -0.1244 -0.9903 0.0613
vn -0.6602 0.668 0.3435
vn -0.9025 0.4224 0.0838
vn -0.0231 -0.9996 -0.0154
vn -0.0231 -0.9996 -0.0158
vn -0.0238 -0.9994 -0.0241
vn -0.9541 0.285 0.0922
vn -0.1516 0.8896 -0.4308
vn -0.992 -0.1017 0.0751
vn 0.2774 0.9325 -0.2311
vn -0.4575 -0.8889 0.023
vn -0.1423 -0.9898 -0.0022
vn -0.7298 0.6834 -0.0189
vn -0.0241 -0.9994 -0.0245
vn -0.0311 -0.9991 -0.029
vn -0.9175 0.3159 -0.2416
vn 0.0907 0.7297 -0.6777
vn -0.9802 -0.0628 -0.1879
vn 0.358 0.8731 -0.331
vn -0.4145 -0.9055 -0.0905
vn -0.7469 0.5498 -0.374
vn -0.5637 0.6435 -0.5178
vn -0.1351 -0.9891 -0.0582
vn 0.3084 0.5883 -0.7475
vn -0.659 0.5085 -0.5543
vn -0.8286 -0.0548 -0.5571
vn 0.4055 0.8424 -0.3549
vn 0.4044 0.8429 -0.3549
vn 0.4068 0.8417 -0.355
vn -0.2987 -0.9268 -0.2278
vn -0.2959 0.6818 -0.669
vn -0.0313 -0.9991 -0.0291
vn -0.1886 0.4794 -0.8571
vn -0.1216 -0.9893 -0.0804
vn -0.2312 0.7085 -0.6668
vn 0.4041 0.5551 -0.727
vn -0.3835 -0.1085 -0.9172
vn -0.148 -0.9264 -0.3462
vn 0.0274 0.7809 -0.6241
vn -0.0573 -0.9981 -0.0235
vn -0.0985 -0.9904 -0.0966
vn 0.1248 0.4328 -0.8928
vn 0.4042 0.843 -0.3549
vn 0.3827 0.8493 -0.3637
vn 0.4487 0.586 -0.6747
vn 0.0144 -0.9077 -0.4194
vn 0.1302 0.8484 -0.5131
vn 0.0685 0.7479 -0.6602
vn 0.0782 -0.1741 -0.9816
vn 0.4054 0.8474 -0.3429
vt 0.245222 0.455854
vt 0.164283 0.427458
vt 0.217253 0.357997
vt 0.270539 0.373983
vt 0.592277 0.25302
vt 0.629693 0.242797
vt 0.585955 0.362725
vt 0.653793 0.343682
vt 0.269702 0.297751
vt 0.243644 0.289396
vt 0.689457 0.425746
vt 0.595495 0.444845
vt 0.298075 0.292228
vt 0.275746 0.210397
vt 0.955115 0.659187
vt 0.956528 0.748408
vt 0.834577 0.743121
vt 0.830582 0.664923
vt 0.556871 0.131785
vt 0.569622 0.123236
vt 0.583819 0.166841
vt 0.604621 0.152643
vt 0.538566 0.240502
vt 0.524575 0.174118
vt 0.558389 0.173452
vt 0.326377 0.365369
vt 0.538798 0.093509
vt 0.578925 0.111411
vt 0.714794 0.293868
vt 0.770052 0.36311
vt 0.094421 0.452024
vt 0.029254 0.378193
vt 0.101828 0.363524
vt 0.223909 0.269557
vt 0.211938 0.241788
vt 0.175723 0.319172
vt 0.664457 0.212446
vt 0.758397 0.229587
vt 0.822141 0.28349
vt 0.583886 0.097791
vt 0.621101 0.131443
vt 0.629742 0.106963
vt -0 0.288552
vt 0.069224 0.284141
vt 0.151626 0.266113
vt 0.693163 0.171173
vt 0.583772 0.083873
vt 0.629558 0.081862
vt 0.003975 0.199801
vt 0.06474 0.201921
vt 0.144201 0.2068
vt 0.70752 0.13037
vt 0.779776 0.16668
vt 0.208256 0.209664
vt 0.846465 0.203719
vt 0.578201 0.07044
vt 0.023148 0.116606
vt 0.079392 0.121874
vt 0.153641 0.147924
vt 0.708167 0.089113
vt 0.781797 0.10446
vt 0.213476 0.177643
vt 0.849981 0.125405
vt 0.619577 0.055673
vt 0.062096 0.042511
vt 0.117234 0.053169
vt 0.567165 0.059108
vt 0.178887 0.098626
vt 0.693595 0.041567
vt 0.764743 0.04061
vt 0.226411 0.151551
vt 0.833216 0.054175
vt 0.599767 0.032921
vt 0.551407 0.052232
vt 0.176848 0.009983
vt 0.218598 0.067257
vt 0.264171 0.733003
vt 0.217964 0.730277
vt 0.235733 0.648281
vt 0.294959 0.654309
vt 0.245587 0.134868
vt 0.245554 0.554481
vt 0.319791 0.567639
vt 0.57116 0.020343
vt 0.31192 0.474972
vt 0.242903 0.462171
vt 0.663323 0
vt 0.248881 0
vt 0.26724 0.057828
vt 0.160074 0.732425
vt 0.159427 0.646738
vt 0.269985 0.129026
vt 0.159818 0.547002
vt 0.170478 0.8414
vt 0.152719 0.848622
vt 0.130177 0.819213
vt 0.165796 0.809189
vt 0.163087 0.455854
vt 0.532587 0.051429
vt 0.199127 0.804223
vt 0.321762 0.019433
vt 0.319076 0.069485
vt 0.099562 0.740909
vt 0.081474 0.652645
vt 0.296532 0.134258
vt 0.076336 0.550286
vt 0.137337 0.857246
vt 0.097884 0.833576
vt 0.084844 0.455854
vt 0.513748 0.058089
vt 0.047621 0.754562
vt 0.017589 0.666951
vt 0.364749 0.101437
vt 0.32038 0.150223
vt -0 0.561481
vt 0.01459 0.460551
vt 0.498725 0.072569
vt 0.468669 0.057102
vt 0.49904 0.029898
vt 0.389343 0.061346
vt 0.394946 0.150836
vt 0.336994 0.175991
vt 0.783895 0.74685
vt 0.722186 0.749744
vt 0.719514 0.659669
vt 0.797673 0.658133
vt 0.803376 0.550606
vt 0.719089 0.555527
vt 0.491491 0.093047
vt 0.454661 0.098732
vt 0.789182 0.44623
vt 0.713056 0.444845
vt 0.434944 0.12661
vt 0.759125 0.826206
vt 0.721202 0.831596
vt 0.659421 0.755459
vt 0.639054 0.668517
vt 0.407173 0.212882
vt 0.343294 0.208345
vt 0.624555 0.567259
vt 0.494378 0.113769
vt 0.463187 0.139873
vt 0.622868 0.452541
vt 0.454661 0.214172
vt 0.67725 0.831651
vt 0.401666 0.276464
vt 0.33859 0.242853
vt 0.568615 0.678147
vt 0.533261 0.581526
vt 0.506 0.12856
vt 0.489387 0.165055
vt 0.532348 0.462519
vt 0.454661 0.308198
vt 0.612967 0.753385
vt 0.643753 0.823667
vt 0.52292 0.135676
vt 0.522864 0.681497
vt 0.454661 0.603082
vt 0.454661 0.478133
vt 0.415832 0.400747
vt 0.373408 0.33127
vt 0.44087 0.533494
vt 0.386774 0.548667
vt 0.384744 0.488821
vt 0.44087 0.455854
vt 0.322636 0.272966
vt 0.427341 0.613048
vt 0.392182 0.616808
vt 1 0.45638
vt 1 0.547641
vt 0.928126 0.444845
vt 0.948574 0.551001
vt 0.54107 0.136191
vt 0.803376 0.465496
vt 0.821261 0.568259
vt 0.33364 0.451446
vt 0.480483 0.211579
vt 0.515731 0.337208
vt 0.454661 0.28319
vt 0.355832 0.622223
vt 0.319791 0.565642
vt 0.504726 0.42609
usemtl None.004
f 1/1/1 2/2/1 3/3/1
f 1/1/1 3/3/1 4/4/1
f 5/5/2 6/6/2 7/7/2
f 6/6/2 8/8/2 7/7/2
f 4/4/3 3/3/3 9/9/3
f 3/3/3 10/10/3 9/9/3
f 7/7/4 8/8/4 11/11/4
f 7/7/4 11/11/4 12/12/4
f 13/13/5 9/9/5 14/14/5
f 12/15/6 11/16/6 2/17/6
f 12/15/6 2/17/6 1/18/6
f 15/19/7 16/20/7 17/21/7
f 16/20/7 18/22/7 17/21/7
f 19/23/8 20/24/8 5/5/8
f 20/24/8 21/25/8 5/5/8
f 22/26/9 4/4/9 9/9/9
f 22/26/9 9/9/9 13/13/9
f 21/25/10 17/21/10 5/5/10
f 17/21/10 6/6/10 5/5/10
f 9/9/11 10/10/11 14/14/11
f 23/27/12 24/28/12 16/20/12
f 8/8/13 25/29/13 26/30/13
f 8/8/13 26/30/13 11/11/13
f 11/31/14 26/32/14 27/33/14
f 11/31/14 27/33/14 2/2/14
f 28/34/15 29/35/15 14/14/15
f 2/2/16 27/33/16 30/36/16
f 2/2/16 30/36/16 3/3/16
f 6/6/17 31/37/17 25/29/17
f 6/6/17 25/29/17 8/8/17
f 3/3/18 30/36/18 10/10/18
f 30/36/18 28/34/18 10/10/18
f 17/21/19 18/22/19 6/6/19
f 18/22/19 31/37/19 6/6/19
f 10/10/20 28/34/20 14/14/20
f 25/29/21 32/38/21 33/39/21
f 25/29/21 33/39/21 26/30/21
f 24/28/22 34/40/22 35/41/22
f 34/40/22 36/42/22 35/41/22
f 26/32/23 33/43/23 37/44/23
f 26/32/23 37/44/23 27/33/23
f 23/27/24 34/40/24 24/28/24
f 27/33/25 37/44/25 38/45/25
f 27/33/25 38/45/25 30/36/25
f 31/37/26 39/46/26 25/29/26
f 39/46/26 32/38/26 25/29/26
f 30/36/27 38/45/27 28/34/27
f 38/45/27 29/35/27 28/34/27
f 16/20/28 24/28/28 18/22/28
f 24/28/28 35/41/28 18/22/28
f 18/22/29 35/41/29 31/37/29
f 35/41/29 39/46/29 31/37/29
f 34/40/30 40/47/30 36/42/30
f 40/47/30 41/48/30 36/42/30
f 33/43/31 42/49/31 43/50/31
f 33/43/31 43/50/31 37/44/31
f 23/27/32 40/47/32 34/40/32
f 37/44/33 43/50/33 44/51/33
f 37/44/33 44/51/33 38/45/33
f 39/46/34 45/52/34 46/53/34
f 39/46/34 46/53/34 32/38/34
f 38/45/35 44/51/35 47/54/35
f 38/45/35 47/54/35 29/35/35
f 32/38/36 46/53/36 33/39/36
f 46/53/36 42/55/36 33/39/36
f 29/35/37 47/54/38 14/14/39
f 35/41/40 36/42/40 45/52/40
f 35/41/40 45/52/40 39/46/40
f 23/27/41 48/56/41 40/47/41
f 42/49/42 49/57/42 50/58/42
f 42/49/42 50/58/42 43/50/42
f 43/50/43 50/58/43 51/59/43
f 43/50/43 51/59/43 44/51/43
f 45/52/44 52/60/44 53/61/44
f 45/52/44 53/61/44 46/53/44
f 44/51/45 51/59/45 54/62/45
f 44/51/45 54/62/45 47/54/45
f 46/53/46 53/61/46 49/63/46
f 46/53/46 49/63/46 42/55/46
f 40/47/47 48/56/47 55/64/47
f 40/47/47 55/64/47 41/48/47
f 47/54/38 54/62/48 14/14/39
f 36/42/49 41/48/49 52/60/49
f 36/42/49 52/60/49 45/52/49
f 49/57/50 56/65/50 50/58/50
f 56/65/50 57/66/50 50/58/50
f 23/27/51 58/67/51 48/56/51
f 50/58/52 57/66/52 59/68/52
f 50/58/52 59/68/52 51/59/52
f 52/60/53 60/69/53 61/70/53
f 52/60/53 61/70/53 53/61/53
f 51/59/54 59/68/54 62/71/54
f 51/59/54 62/71/54 54/62/54
f 53/61/55 61/70/55 56/72/55
f 53/61/55 56/72/55 49/63/55
f 48/56/56 58/67/56 63/73/56
f 48/56/56 63/73/56 55/64/56
f 54/62/57 62/71/57 14/14/57
f 41/48/58 55/64/58 60/69/58
f 41/48/58 60/69/58 52/60/58
f 23/27/59 64/74/59 58/67/60
f 57/66/61 65/75/61 66/76/61
f 57/66/61 66/76/61 59/68/61
f 60/77/62 67/78/62 68/79/62
f 60/77/62 68/79/62 61/80/62
f 59/68/63 66/76/63 69/81/63
f 59/68/63 69/81/63 62/71/63
f 61/80/64 68/79/64 70/82/64
f 61/80/64 70/82/64 56/83/64
f 58/67/65 64/74/65 71/84/65
f 58/67/65 71/84/65 63/73/65
f 56/83/66 70/82/66 57/85/66
f 70/82/66 65/86/66 57/85/66
f 62/71/67 69/81/67 14/14/67
f 55/64/68 63/73/68 67/87/68
f 55/64/68 67/87/68 60/69/68
f 65/75/69 72/88/69 73/89/69
f 65/75/69 73/89/69 66/76/69
f 67/78/70 74/90/70 75/91/70
f 67/78/70 75/91/70 68/79/70
f 66/76/71 73/89/71 76/92/71
f 66/76/71 76/92/71 69/81/71
f 68/79/72 75/91/72 77/93/72
f 68/79/72 77/93/72 70/82/72
f 64/94/73 78/95/73 79/96/73
f 64/94/73 79/96/73 71/97/73
f 70/82/74 77/93/74 72/98/74
f 70/82/74 72/98/74 65/86/74
f 23/27/59 78/99/75 64/74/59
f 69/81/76 76/92/76 14/14/76
f 63/100/77 71/97/77 74/90/77
f 63/100/77 74/90/77 67/78/77
f 72/88/78 80/101/78 81/102/78
f 72/88/78 81/102/78 73/89/78
f 74/90/79 82/103/79 83/104/79
f 74/90/79 83/104/79 75/91/79
f 73/89/80 81/102/80 84/105/80
f 73/89/80 84/105/80 76/92/80
f 75/91/81 83/104/81 85/106/81
f 75/91/81 85/106/81 77/93/81
f 78/95/82 86/107/82 87/108/82
f 78/95/82 87/108/82 79/96/82
f 77/93/83 85/106/83 72/98/83
f 85/106/83 80/109/83 72/98/83
f 23/27/84 86/110/84 78/99/84
f 76/92/85 84/105/86 14/14/87
f 71/97/88 79/96/88 82/103/88
f 71/97/88 82/103/88 74/90/88
f 82/103/89 88/111/89 89/112/89
f 82/103/89 89/112/89 83/104/89
f 81/102/90 90/113/90 91/114/90
f 81/102/90 91/114/90 84/105/90
f 83/104/91 89/112/91 92/115/91
f 83/104/91 92/115/91 85/106/91
f 84/105/86 91/114/92 14/14/87
f 85/106/93 92/115/93 80/109/93
f 92/115/93 93/116/93 80/109/93
f 86/110/94 94/117/94 95/118/94
f 86/110/94 95/118/94 87/119/94
f 80/101/95 93/120/95 81/102/95
f 93/120/95 90/113/95 81/102/95
f 23/27/96 94/117/96 86/110/96
f 79/96/97 87/108/97 88/111/97
f 79/96/97 88/111/97 82/103/97
f 90/113/98 96/121/98 97/122/98
f 90/113/98 97/122/98 91/114/98
f 88/123/99 98/124/99 99/125/99
f 88/123/99 99/125/99 89/126/99
f 89/126/100 99/125/100 92/127/100
f 99/125/100 100/128/100 92/127/100
f 94/117/101 101/129/101 95/118/101
f 101/129/101 102/130/101 95/118/101
f 92/127/102 100/128/102 93/131/102
f 100/128/102 103/132/102 93/131/102
f 23/27/103 101/129/103 94/117/103
f 93/120/104 103/133/104 90/113/104
f 103/133/104 96/121/104 90/113/104
f 91/114/105 97/122/105 14/14/105
f 87/134/106 95/135/106 98/124/106
f 87/134/106 98/124/106 88/123/106
f 98/124/107 104/136/107 105/137/107
f 98/124/107 105/137/107 99/125/107
f 96/121/108 106/138/109 97/122/108
f 106/138/109 107/139/110 97/122/108
f 99/125/111 105/137/111 100/128/111
f 105/137/111 108/140/111 100/128/111
f 101/129/112 109/141/112 102/130/112
f 109/141/112 110/142/112 102/130/112
f 100/128/113 108/140/113 103/132/113
f 108/140/113 111/143/113 103/132/113
f 23/27/114 109/141/114 101/129/114
f 103/133/115 111/144/115 96/121/115
f 111/144/115 106/138/115 96/121/115
f 97/122/116 107/139/116 14/14/116
f 95/135/117 102/145/117 98/124/117
f 102/145/117 104/136/117 98/124/117
f 106/138/109 112/146/118 107/139/110
f 112/146/118 113/147/119 107/139/110
f 105/137/120 114/148/120 108/140/120
f 114/148/120 115/149/120 108/140/120
f 109/141/121 116/150/121 110/142/121
f 116/150/121 117/151/121 110/142/121
f 108/140/122 115/149/122 111/143/122
f 115/149/122 118/152/122 111/143/122
f 23/27/123 116/150/123 109/141/123
f 111/144/124 118/153/124 106/138/124
f 118/153/124 112/146/124 106/138/124
f 104/136/125 119/154/125 105/137/125
f 119/154/125 114/148/125 105/137/125
f 102/145/126 110/155/126 104/136/126
f 110/155/126 119/154/126 104/136/126
f 107/139/127 113/147/127 14/14/127
f 116/150/128 120/156/128 117/151/128
f 120/156/128 20/24/128 117/151/128
f 114/148/129 121/157/129 115/149/129
f 121/157/129 122/158/129 115/149/129
f 115/149/130 122/158/130 118/152/130
f 122/158/130 123/159/130 118/152/130
f 23/27/131 120/156/132 116/150/133
f 118/153/134 123/160/134 112/146/134
f 123/160/134 124/161/134 112/146/134
f 119/162/135 125/163/135 121/164/135
f 119/162/135 121/164/135 114/165/135
f 112/146/118 124/161/136 113/147/119
f 124/161/136 126/166/136 113/147/119
f 110/167/137 117/168/137 119/162/137
f 117/168/137 125/163/137 119/162/137
f 113/147/138 126/166/138 14/14/138
f 121/169/139 127/170/139 122/171/139
f 127/170/139 128/172/139 122/171/139
f 20/24/140 120/156/140 129/173/140
f 20/24/140 129/173/140 21/25/140
f 122/171/141 128/172/141 123/174/141
f 128/172/141 130/175/141 123/174/141
f 123/160/142 130/176/142 22/26/142
f 123/160/142 22/26/142 124/161/142
f 125/177/143 19/23/143 127/178/143
f 125/177/143 127/178/143 121/179/143
f 124/161/144 22/26/144 13/13/144
f 124/161/144 13/13/144 126/166/144
f 126/166/145 13/13/145 14/14/145
f 117/168/146 20/180/146 19/181/146
f 117/168/146 19/181/146 125/163/146
f 120/156/132 23/27/131 129/173/147
f 23/27/148 15/19/148 129/173/148
f 129/173/149 15/19/149 21/25/149
f 15/19/149 17/21/149 21/25/149
f 22/26/150 130/176/150 4/4/150
f 130/176/150 1/1/150 4/4/150
f 127/178/151 19/23/151 7/7/151
f 19/23/151 5/5/151 7/7/151
f 128/182/152 127/178/152 7/7/152
f 128/182/152 7/7/152 12/12/152
f 130/175/153 128/172/153 1/18/153
f 128/172/153 12/15/153 1/18/153
f 23/27/154 16/20/154 15/19/154
s off
