# Apple ModelIO OBJ File: atril
mtllib atril.mtl
g Atril
v -0.030554 0.075034 0.026706
v -0.030554 1.48406 0.026706
v -0.030554 1.48406 -0.031971
v -0.030554 0.075034 -0.03197
v 0.030682 1.42228 -0.031971
v 0.030682 0.075034 -0.03197
v 0.030682 1.42228 0.026706
v 0.030682 0.075034 0.026706
v -0.028661 0.067255 -0.030156
v 0.028789 0.067255 -0.030156
v 0.028789 0.067255 0.024892
v -0.028661 0.067255 0.024892
v 0.029491 1.44868 -0.031971
v -0.031745 1.51045 -0.031971
v 0.131467 0.014761 0.123279
v -0.131338 0.014761 0.123279
v -0.131338 0.026216 0.123279
v 0.131467 0.026216 0.123279
v 0.131467 0.014761 -0.128543
v 0.131467 0.026216 -0.128543
v -0.131338 0.026216 -0.128543
v -0.131338 0.014761 -0.128543
v 0.029491 1.44868 0.026706
v 0.16299 1.37039 -0.274205
v 0.16299 1.37039 0.26894
v -0.031745 1.51045 0.026706
v -0.14815 1.6847 0.26894
v -0.14815 1.6847 -0.274205
v 0.173178 1.38858 0.269015
v 0.173178 1.38858 -0.27413
v 0.173904 1.38203 0.268933
v 0.173904 1.38203 -0.274212
vn -1 -0 -0
vn -0 -0 -1
vn 1 -0 -0
vn -0 -0 1
vn -0 -1 -0
vn -0 -0.8823 -0.4707
vn -0 0.8925 0.4511
vn -0.4552 -0.8904 -0
vn -0 0.8925 -0.4511
vn -0.4359 0.9 -0
vn 0.4359 0.9 -0
vn -0 -0.8823 0.4707
vn 0.4552 -0.8904 -0
vn -0.5059 -0.8626 -0
vn 0.999 0.0451 -0
vn -0.999 -0.0451 -0
vn 0.7107 0.7035 -0
vn -0.8315 -0.5555 -0
vn -0.7012 -0.6943 0.1622
vn -0.7012 -0.6943 -0.1622
vn -0.7102 -0.704 -0
vn -0.8725 0.4887 -0
vn 0.9939 0.1103 -0
vn 0.7295 -0.684 -0
vn 0.0126 -0.0112 0.9999
vn -0.0126 0.0112 -0.9999
vt 0.064498 0.952345
vt 0.064498 0.017425
vt 0.103686 0.017425
vt 0.103686 0.952345
vt 0.45957 0.958665
vt 0.460351 0.017631
vt 0.501214 0.05892
vt 0.500467 0.958698
vt 0.685092 0.709196
vt 0.685092 0.168183
vt 0.72428 0.168183
vt 0.72428 0.709196
vt 0.501961 0.958698
vt 0.542076 0.017631
vt 0.542858 0.958664
vt 0.577887 0.233892
vt 0.608979 0.233892
vt 0.608979 0.270657
vt 0.577887 0.270657
vt 0.500432 0.041289
vt 0.45957 -0
vt 0.685092 0.336366
vt 0.542858 0.336366
vt 0.611914 0.064498
vt 0.578646 0.064497
vt 0.542858 -0
vt 0.68563 0
vt 0.578646 0.103686
vt 0.611914 0.103686
vt 0.68563 0.168183
vt 0.542858 0.168183
vt 0.642072 0.336366
vt 0.649723 0.336366
vt 0.649723 0.511883
vt 0.642072 0.511884
vt 0.664912 0.504549
vt 0.660312 0.504549
vt 0.660312 0.336366
vt 0.664912 0.336366
vt 0.657373 0.511884
vt 0.657373 0.336366
vt 0 1
vt 0 0.992399
vt 0.168183 0.992399
vt 0.168183 1
vt 0.542858 0.43884
vt 0.542858 0.402075
vt 0.618732 0.336366
vt 0.618732 0.504549
vt 0.356681 0.200968
vt 0.356681 0.16178
vt 0.45957 0.362748
vt 0.55376 0.504549
vt 0.55376 0.543738
vt 0.542858 0.543738
vt 0.542858 0.504549
vt 0.064498 0
vt 0.103686 0
vt 0.501995 0.041289
vt 0.168183 0.362748
vt 0.459312 0.362748
vt 0.459312 0.725496
vt 0.168183 0.725496
vt 0.299367 0.16178
vt 0.299367 0.200968
vt 0.168183 -0
vt 0.631574 0.336366
vt 0.631574 0.699114
vt 0.618732 0.699164
vt 0.618732 0.336416
vt 0.657373 0.699114
vt 0.660312 0.336421
vt 0.660312 0.699169
vt 0.642072 0.699114
vt 0.631574 0.699119
vt 0.631574 0.336371
vt 0.55632 0.518472
vt 0.55632 0.532394
vt 0.55376 0.52205
vt 0.556321 0.508127
vt 0.55376 0.518472
usemtl 
f 1/1/1 2/2/1 3/3/1
f 1/1/1 3/3/1 4/4/1
f 4/5/2 3/6/2 5/7/2
f 4/5/2 5/7/2 6/8/2
f 6/9/3 5/10/3 7/11/3
f 6/9/3 7/11/3 8/12/3
f 8/13/4 7/7/4 2/14/4
f 8/13/4 2/14/4 1/15/4
f 9/16/5 10/17/5 11/18/5
f 9/16/5 11/18/5 12/19/5
f 5/7/2 3/6/2 13/20/2
f 3/6/2 14/21/2 13/20/2
f 12/19/6 11/18/6 15/22/6
f 12/19/6 15/22/6 16/23/6
f 8/24/7 1/25/7 17/26/7
f 8/24/7 17/26/7 18/27/7
f 11/18/8 10/17/8 19/10/8
f 11/18/8 19/10/8 15/22/8
f 4/28/9 6/29/9 20/30/9
f 4/28/9 20/30/9 21/31/9
f 15/32/4 18/33/4 17/34/4
f 15/32/4 17/34/4 16/35/4
f 19/36/3 20/37/3 18/38/3
f 19/36/3 18/38/3 15/39/3
f 22/40/2 21/34/2 20/33/2
f 22/40/2 20/33/2 19/41/2
f 16/42/1 17/43/1 21/44/1
f 16/42/1 21/44/1 22/45/1
f 1/1/10 4/4/10 21/44/10
f 1/1/10 21/44/10 17/43/10
f 6/29/11 8/24/11 18/27/11
f 6/29/11 18/27/11 20/30/11
f 10/17/12 9/16/12 22/31/12
f 10/17/12 22/31/12 19/10/12
f 9/46/13 12/47/13 16/48/13
f 9/46/13 16/48/13 22/49/13
f 23/50/14 13/51/14 24/21/14
f 23/50/14 24/21/14 25/52/14
f 7/53/15 5/54/15 13/55/15
f 7/53/15 13/55/15 23/56/15
f 3/3/16 2/2/16 26/57/16
f 3/3/16 26/57/16 14/58/16
f 2/14/4 7/7/4 23/59/4
f 2/14/4 23/59/4 26/26/4
f 27/60/17 25/61/17 24/62/17
f 27/60/17 24/62/17 28/63/17
f 14/64/18 26/65/18 27/60/18
f 14/64/18 27/60/18 28/66/18
f 26/65/19 23/50/19 27/60/19
f 23/50/19 25/52/19 27/60/19
f 13/51/20 14/64/20 28/66/20
f 13/51/20 28/66/20 24/21/20
f 23/50/21 26/65/21 14/64/21
f 23/50/21 14/64/21 13/51/21
f 24/67/22 25/68/22 29/69/22
f 24/67/22 29/69/22 30/70/22
f 30/71/23 29/41/23 31/72/23
f 30/71/23 31/72/23 32/73/23
f 25/32/24 24/74/24 32/75/24
f 25/32/24 32/75/24 31/76/24
f 29/77/25 25/78/25 31/79/25
f 30/53/26 32/80/26 24/81/26
s off
