# Apple ModelIO OBJ File: ViolinTapa
mtllib ViolinTapa.mtl
g ViolinTapa
v 0.722785 1.83481 0.15839
v 0.722067 1.23718 0.160043
v 0.740981 1.22216 -3.44506
v 0.741706 1.82525 -3.44673
v 0.495729 1.82486 -3.69448
v 0.495004 1.22178 -3.69282
v 0.195063 1.82571 -3.51704
v 0.194338 1.22263 -3.51537
v -1.00262 1.84854 1.33791
v -1.00336 1.23413 1.33961
v -0.856905 1.2352 1.79179
v -0.856166 1.84961 1.79009
v -0.247545 1.84969 2.08449
v -0.248283 1.23528 2.08619
v 0.415766 1.84853 1.95369
v 0.415027 1.23412 1.95538
v -0.165371 1.84783 1.44559
v 0.671139 1.23271 1.55498
v 0.636477 1.21617 1.50128
v 0.673306 1.22039 0.186392
v -0.699626 1.23838 -0.022816
v -0.940215 1.2175 1.29849
v -0.654223 1.22151 0.015645
v 0.011939 1.83541 0.066961
v -0.698907 1.83601 -0.024469
v 0.671878 1.84712 1.55328
v -0.802316 1.21852 1.72426
v 0.205764 1.20626 -3.41472
v -0.229243 1.21859 2.00147
v 0.395325 1.2175 1.8783
v 0.720479 1.20583 -3.34852
v 0.488869 1.20546 -3.5818
v 0.716376 1.74804 -3.32627
v 0.698127 1.76253 0.152038
v -0.238096 1.7607 2.01044
v 0.401886 1.75958 1.88424
v 0.188958 1.74849 -3.39411
v -0.673565 1.76369 -0.024389
v -0.966615 1.75958 1.29012
v -0.825312 1.76062 1.7264
v 0.64899 1.75822 1.49792
v -0.158812 1.7589 1.39402
v 0.012281 1.76311 0.063824
v 0.47905 1.74767 -3.56531
vn 1 -0.0012 0.0053
vn -0.5083 -0.0018 -0.8612
vn -0.9513 0.002 0.3081
vn 0.1935 0.0025 0.9811
vn 0.0016 1 -0.0058
vn 0.0013 1 -0.0032
vn 0.0012 1 -0.0028
vn 0.3685 -0.9296 0.009
vn -0.2957 -0.9528 -0.0689
vn 0.0016 1 -0.0057
vn 0.0012 1 -0.0029
vn -0.976 0.0006 -0.2176
vn 0.8424 0.0005 0.5388
vn -0.2107 -0.975 0.0706
vn -0.344 -0.9353 -0.083
vn -0.4354 0.003 0.9002
vn 0.7097 -0.0028 -0.7045
vn 0.038 -0.9788 0.2014
vn 0.0012 1 -0.0027
vn 0.0012 1 -0.0026
vn -0.9688 0.0005 -0.248
vn 0.139 -0.9808 -0.1365
vn 0.9993 -0.0011 0.0365
vn -0.9998 0.019 -0.0094
vn -0.1934 0.0131 -0.981
vn 0.9688 0.0367 0.2452
vn 0.9505 0.0415 -0.3079
vn -0.9989 0.0333 -0.0322
vn 0.9747 0.0508 0.2175
vn -0.0912 -0.9845 -0.1497
vn 0.4427 -0.8966 0.0078
vn -0.0842 -0.9811 0.1743
vn 0.228 -0.9622 0.1492
vn -0.0008 -1 -0.0002
vn -0.0012 -1 0.0024
vn -0.0012 -1 0.0028
vn -0.0009 -1 0.0005
vn -0.0016 -1 0.0039
vn -0.0011 -1 0.0039
vn -0.0011 -1 0.0042
vn -0.0014 -1 0.0041
vn -0.0017 -1 0.0041
vn -0.7092 -0.0343 0.7042
vn -0.8423 0.0161 -0.5388
vn 0.5082 -0.017 0.8611
vn 0.4353 0.022 -0.9
vt 0.682016 0.248498
vt 0.763571 0.248402
vt 0.763463 0.736829
vt 0.681164 0.736926
vt 0.543127 0.846442
vt 0.543127 0.764124
vt 0.590101 0.846506
vt 0.590101 0.764188
vt 0.765165 0.678195
vt 0.849027 0.678137
vt 0.848749 0.736807
vt 0.764887 0.736865
vt 0.458949 0.827886
vt 0.542811 0.827458
vt 0.459265 0.918852
vt 0.543127 0.918425
vt 0.114744 0.704447
vt 0.229488 0.714968
vt 0.196546 0.770862
vt 0.106716 0.792008
vt 0.424306 0.506541
vt 0.458949 0.693881
vt 0.452705 0.687738
vt 0.418561 0.51148
vt 0.229488 0.714961
vt 0.229488 0.524439
vt 0.236646 0.707587
vt 0.236646 0.528193
vt 0.132067 0.515502
vt 0.229488 0.524434
vt 0.765978 0.488459
vt 0.847549 0.488403
vt 0.68034 9.9e-05
vt 0.764185 -0
vt 0.764887 0.058658
vt 0.681043 0.058757
vt 0.034647 0.50657
vt 0 0.693927
vt 0.262431 0.770848
vt 0.267665 0.76021
vt 0.244803 0.032577
vt 0.249283 0.045625
vt 0.022229 0.75488
vt 0.459265 0.764552
vt 0.762639 0.766102
vt 0.68034 0.7662
vt 0.436728 0.754836
vt 0.352253 0.791978
vt 0.352241 0.780106
vt 0.431781 0.745133
vt 0.139201 0.025703
vt 0.17933 0
vt 0.764887 5.7e-05
vt 0.847203 -0
vt 0.214117 0.032571
vt 0.279583 0
vt 0.319711 0.025695
vt 0.319816 0.039146
vt 0.282032 0.014951
vt 0.924021 0.027552
vt 0.923075 0.506951
vt 0.850028 0.030901
vt 0.849026 0.502134
vt 0.764887 0.885031
vt 0.765134 0.799378
vt 0.839137 0.79797
vt 0.838884 0.885737
vt 0.925919 0.479377
vt 0.92441 -0
vt 0.998435 0.003364
vt 1 0.474574
vt 0.92441 0.713275
vt 0.925055 0.658025
vt 0.999114 0.657631
vt 0.998453 0.714244
vt 0.924071 0.685605
vt 0.850066 0.685197
vt 0.569644 0.679646
vt 0.68034 0.669477
vt 0.6589 0.728288
vt 0.577397 0.764124
vt 0.552932 0.49736
vt 0.646916 0.488726
vt 0.458949 0.505994
vt 0.458949 0.689816
vt 0.490734 0.743737
vt 0.473725 0.031431
vt 0.507282 -0
vt 0.545999 0.024791
vt 0.850426 0.002669
vt 0.92441 0.740845
vt 0.850412 0.7418
vt 0.591192 0.765516
vt 0.635401 0.764124
vt 0.590101 0.839599
vt 0.635401 0.838173
vt 0.764887 0.739745
vt 0.838884 0.736865
usemtl 
f 1/1/1 2/2/1 3/3/1
f 1/1/1 3/3/1 4/4/1
f 5/5/2 6/6/2 7/7/2
f 6/6/2 8/8/2 7/7/2
f 9/9/3 10/10/3 11/11/3
f 9/9/3 11/11/3 12/12/3
f 13/13/4 14/14/4 15/15/4
f 14/14/4 16/16/4 15/15/4
f 17/17/5 9/18/6 12/19/7
f 17/17/5 12/19/7 13/20/7
f 2/21/8 18/22/8 19/23/8
f 2/21/8 19/23/8 20/24/8
f 10/25/9 21/26/9 22/27/9
f 21/26/9 23/28/9 22/27/9
f 24/29/10 25/30/11 9/18/6
f 24/29/10 9/18/6 17/17/5
f 25/31/12 21/32/12 9/9/12
f 21/32/12 10/10/12 9/9/12
f 15/33/13 16/34/13 18/35/13
f 15/33/13 18/35/13 26/36/13
f 1/37/11 24/29/10 26/38/6
f 24/29/10 17/17/5 26/38/6
f 11/39/14 10/25/14 27/40/14
f 10/25/14 22/27/14 27/40/14
f 21/26/15 8/41/15 28/42/15
f 21/26/15 28/42/15 23/28/15
f 26/38/6 17/17/5 15/43/7
f 17/17/5 13/20/7 15/43/7
f 12/44/16 11/6/16 13/13/16
f 11/6/16 14/14/16 13/13/16
f 4/4/17 3/3/17 6/45/17
f 4/4/17 6/45/17 5/46/17
f 16/47/18 14/48/18 29/49/18
f 16/47/18 29/49/18 30/50/18
f 4/51/19 5/52/20 24/29/10
f 4/51/19 24/29/10 1/37/11
f 7/53/21 8/54/21 25/31/21
f 8/54/21 21/32/21 25/31/21
f 5/52/20 7/55/20 24/29/10
f 7/55/20 25/30/11 24/29/10
f 6/56/22 3/57/22 31/58/22
f 6/56/22 31/58/22 32/59/22
f 26/36/23 18/35/23 2/2/23
f 26/36/23 2/2/23 1/1/23
f 31/60/24 20/61/24 33/62/24
f 20/61/24 34/63/24 33/62/24
f 30/64/25 29/65/25 35/66/25
f 30/64/25 35/66/25 36/67/25
f 23/68/26 28/69/26 37/70/26
f 23/68/26 37/70/26 38/71/26
f 27/72/27 22/73/27 39/74/27
f 27/72/27 39/74/27 40/75/27
f 20/61/28 19/76/28 34/63/28
f 19/76/28 41/77/28 34/63/28
f 22/73/29 23/68/29 39/74/29
f 23/68/29 38/71/29 39/74/29
f 8/41/30 6/56/30 28/42/30
f 6/56/30 32/59/30 28/42/30
f 3/57/31 2/21/31 31/58/31
f 2/21/31 20/24/31 31/58/31
f 14/48/32 11/39/32 29/49/32
f 11/39/32 27/40/32 29/49/32
f 18/22/33 16/47/33 30/50/33
f 18/22/33 30/50/33 19/23/33
f 42/78/34 41/79/35 36/80/36
f 42/78/34 36/80/36 35/81/36
f 43/82/37 34/83/38 42/78/34
f 34/83/38 41/79/35 42/78/34
f 38/84/39 43/82/37 42/78/34
f 38/84/39 42/78/34 39/85/35
f 39/85/35 42/78/34 40/86/36
f 42/78/34 35/81/36 40/86/36
f 37/87/40 44/88/41 43/82/37
f 37/87/40 43/82/37 38/84/39
f 44/88/41 33/89/42 43/82/37
f 33/89/42 34/83/38 43/82/37
f 32/69/43 31/60/43 44/90/43
f 31/60/43 33/62/43 44/90/43
f 19/76/44 30/91/44 36/92/44
f 19/76/44 36/92/44 41/77/44
f 28/93/45 32/94/45 37/95/45
f 32/94/45 44/96/45 37/95/45
f 29/65/46 27/97/46 35/66/46
f 27/97/46 40/98/46 35/66/46
s off
