# Apple ModelIO OBJ File: cama
mtllib cama.mtl
g Cama.001_None
v -1.55239 0.056396 -0.594746
v -1.55239 0.472818 -0.594746
v -1.55239 0.472818 -3.21986
v -1.55239 0.056396 -3.21986
v 0.276408 0.472818 -3.21986
v 0.276408 0.056396 -3.21986
v 0.276408 0.472818 -0.594746
v 0.276408 0.056396 -0.594746
v -1.3954 0.261176 -2.73463
v -1.3954 0.684345 -2.73463
v -1.3954 0.684345 -3.2078
v -1.3954 0.261175 -3.2078
v 0.132705 0.684345 -3.2078
v 0.132705 0.261175 -3.2078
v 0.132705 0.684345 -2.73463
v 0.132705 0.261176 -2.73463
vn -1 -0 -0
vn -0 -0 -1
vn 1 -0 -0
vn -0 -0 1
vn -0 -1 -0
vn -0 1 -0
vt 0.814529 -0
vt 0.907265 -0
vt 0.907265 0.584602
vt 0.814529 0.584602
vt 0 0.584602
vt 0.092735 0.584602
vt 0.092735 0.991866
vt 0 0.991866
vt 1 0.584602
vt 1 -0
vt 0.185471 0.584602
vt 0.185471 0.991866
vt 0.407265 0.584602
vt 0 -0
vt 0.407265 -0
vt 0.479321 0.584602
vt 0.573559 0.584602
vt 0.573559 0.689976
vt 0.479321 0.689976
vt 0.290845 0.584602
vt 0.385083 0.584602
vt 0.385083 0.924904
vt 0.290845 0.924904
vt 0.667797 0.689976
vt 0.667797 0.584602
vt 0.479321 0.924904
vt 0.125 0.5
vt 0.375 0.5
vt 0.375 0.75
vt 0.125 0.75
vt 0.185471 0.924904
usemtl None
f 1/1/1 2/2/1 3/3/1
f 1/1/1 3/3/1 4/4/1
f 4/5/2 3/6/2 5/7/2
f 4/5/2 5/7/2 6/8/2
f 6/9/3 5/3/3 7/2/3
f 6/9/3 7/2/3 8/10/3
f 8/6/4 7/11/4 2/12/4
f 8/6/4 2/12/4 1/7/4
f 4/13/5 6/5/5 8/14/5
f 4/13/5 8/14/5 1/15/5
f 5/4/6 3/13/6 2/15/6
f 5/4/6 2/15/6 7/1/6
f 9/16/1 10/17/1 11/18/1
f 9/16/1 11/18/1 12/19/1
f 12/20/2 11/21/2 13/22/2
f 12/20/2 13/22/2 14/23/2
f 14/24/3 13/18/3 15/17/3
f 14/24/3 15/17/3 16/25/3
f 16/21/4 15/16/4 10/26/4
f 16/21/4 10/26/4 9/22/4
f 12/27/5 14/28/5 16/29/5
f 12/27/5 16/29/5 9/30/5
f 13/20/6 11/23/6 10/31/6
f 13/20/6 10/31/6 15/11/6
s off
