# Apple ModelIO OBJ File: cortina
mtllib cortina.mtl
g Cube.002_Cube.014_None.003
v 4.2947 3.50703 -0.507613
v 4.2947 3.90046 -0.507613
v 4.2947 3.90046 0.536056
v 4.2947 3.50088 0.267028
v 4.22603 3.90046 0.539429
v 4.22603 3.50088 0.270402
v 4.22603 3.50703 -0.50424
v 4.22603 3.90046 -0.50424
v 4.22572 1.63695 -0.513613
v 4.22682 2.10886 -0.480198
v 4.29501 1.63695 -0.517017
v 4.29391 2.10886 -0.483493
v 4.22744 2.78489 -0.461244
v 4.29328 2.78489 -0.464478
v 4.22666 3.13578 -0.484963
v 4.29406 3.13578 -0.488274
v 4.22603 1.63695 -0.125878
v 4.22603 2.10886 -0.230476
v 4.22603 2.78489 -0.372351
v 4.22603 3.13116 -0.040148
v 4.2947 1.63695 -0.129251
v 4.2947 2.10886 -0.233849
v 4.2947 2.78489 -0.375725
v 4.2947 3.13116 -0.043521
v 4.22603 3.50703 1.5831
v 4.22603 3.90046 1.5831
v 4.22603 3.50088 0.808457
v 4.2947 3.50088 0.805084
v 4.2947 3.50703 1.57973
v 4.2947 3.90046 1.57973
v 4.29501 1.63695 1.5891
v 4.29391 2.10886 1.55568
v 4.22682 2.10886 1.55898
v 4.22572 1.63695 1.5925
v 4.29328 2.78489 1.53673
v 4.22744 2.78489 1.53996
v 4.29406 3.13578 1.56045
v 4.22666 3.13578 1.56376
v 4.2947 1.63695 1.20136
v 4.2947 2.10886 1.30596
v 4.2947 2.78489 1.44784
v 4.2947 3.13116 1.11563
v 4.22603 1.63695 1.20474
v 4.22603 2.10886 1.30933
v 4.22603 2.78489 1.45121
v 4.22603 3.13116 1.11901
vn 1 -0.0003 -0.0003
vn 1 -0 -0
vn 1 -0.0005 -0.0003
vn 0.0407 -0.558 0.8288
vn -1 -0.0005 -0.0003
vn -1 -0 -0
vn -1 -0.0003 -0.0003
vn -0.0491 -0 -0.9988
vn -0 1 -0
vn -0.0489 0.0707 -0.9963
vn -0.049 0.028 -0.9984
vn -0.049 -0.0675 -0.9965
vn -0.049 -0.0519 -0.9975
vn -1 0.0011 -0.0008
vn -1 0.0001 -0.0061
vn -1 0.0003 -0.0065
vn -1 0.0001 -0.0064
vn -1 0.0002 -0.0052
vn -1 0.0004 -0.0033
vn -1 -0.0001 -0.0021
vn 0.0479 0.2161 0.9752
vn 0.048 0.2106 0.9764
vn 0.048 0.2107 0.9764
vn 0.048 0.2052 0.9776
vn 0.0354 -0.6919 0.7212
vn 0.0376 -0.6427 0.7652
vn 1 0.0011 -0.0008
vn 1 0.0005 -0.0036
vn 1 -0 -0.0061
vn 1 0.0002 -0.0052
vn 1 0.0001 -0.0064
vn 1 -0.0001 -0.0021
vn 1 0.0004 -0.0033
vn -1 -0.0003 0.0003
vn -1 -0.0005 0.0003
vn -0.0407 -0.558 -0.8288
vn 1 -0.0005 0.0003
vn 1 -0.0003 0.0003
vn 0.0491 -0 0.9988
vn 0.0489 0.0707 0.9963
vn 0.049 0.028 0.9984
vn 0.0489 -0.0675 0.9965
vn 0.049 -0.0519 0.9975
vn 1 0.0011 0.0008
vn 1 -0 0.0061
vn 1 0.0005 0.0036
vn 1 0.0001 0.0064
vn 1 0.0002 0.0052
vn 1 0.0004 0.0033
vn 1 -0.0001 0.0021
vn -0.0479 0.2161 -0.9752
vn -0.048 0.2106 -0.9764
vn -0.048 0.2107 -0.9764
vn -0.048 0.2052 -0.9776
vn -0.0354 -0.6919 -0.7212
vn -0.0376 -0.6427 -0.7652
vn -1 0.0011 0.0008
vn -1 0.0005 0.0036
vn -1 -0 0.0061
vn -1 0.0002 0.0052
vn -1 0.0001 0.0064
vn -1 -0.0001 0.0021
vn -1 0.0004 0.0033
vt 0.240313 0.091446
vt 0.239938 0.000997
vt 0.479875 -0
vt 0.418408 0.092121
vt 0.963683 0.110499
vt 0.965062 0.000237
vt 0.980867 -0
vt 0.979488 0.110261
vt 0.781281 0.09212
vt 0.719813 0
vt 0.959375 0.091442
vt 0.95975 0.000994
vt 0.495712 0.853048
vt 0.495682 0.92311
vt 0.479875 0.923103
vt 0.479906 0.853041
vt 0.980867 0.23994
vt 0.996655 0.240715
vt 0.996655 0.480655
vt 0.980867 0.479879
vt 0.495824 0.521387
vt 0.495913 0.600565
vt 0.479875 0.521381
vt 0.480471 0.600559
vt 0.495932 0.718195
vt 0.480777 0.718189
vt 0.495814 0.784131
vt 0.4803 0.784125
vt 0.87061 0.521011
vt 0.895107 0.412618
vt 0.95975 0.52138
vt 0.952517 0.412856
vt 0.928367 0.257336
vt 0.948803 0.25742
vt 0.852324 0.177412
vt 0.95459 0.176775
vt 0.965062 0.5
vt 0.962849 0.431177
vt 0.978654 0.43094
vt 0.980867 0.499763
vt 0.95975 0.33143
vt 0.975555 0.331192
vt 0.961846 0.221477
vt 0.977651 0.22124
vt 0.239938 0.521384
vt 0.247194 0.412859
vt 0.304587 0.412621
vt 0.329084 0.521013
vt 0.25092 0.257423
vt 0.271324 0.257339
vt 0.245114 0.176778
vt 0.347366 0.177414
vt 0.239562 0.429938
vt 0.239938 0.520387
vt -0 0.521384
vt 0.061467 0.429263
vt 0.976934 0.889501
vt 0.975555 0.999763
vt 0.95975 1
vt 0.961129 0.889739
vt 0.658344 0.42926
vt 0.719812 0.52138
vt 0.480249 0.429938
vt 0.479875 0.520387
vt 0.496151 0.591442
vt 0.496182 0.52138
vt 0.511989 0.521388
vt 0.511958 0.591449
vt 0.996655 0.000775
vt 0.49604 0.923103
vt 0.49595 0.843925
vt 0.511392 0.843932
vt 0.511989 0.92311
vt 0.495932 0.726295
vt 0.511086 0.726302
vt 0.496049 0.660359
vt 0.511563 0.660366
vt 0.569015 0.000369
vt 0.544518 0.108762
vt 0.487108 0.108524
vt 0.511258 0.264045
vt 0.490822 0.26396
vt 0.587301 0.343968
vt 0.485035 0.344606
vt 0.975555 0.5
vt 0.977768 0.568823
vt 0.95975 0.500237
vt 0.961963 0.56906
vt 0.980867 0.66857
vt 0.965062 0.668808
vt 0.97877 0.778523
vt 0.962965 0.77876
vt 0.239938 -0
vt 0.232681 0.108525
vt 0.175289 0.108763
vt 0.150791 0.00037
vt 0.228955 0.26396
vt 0.208551 0.264045
vt 0.234761 0.344606
vt 0.132509 0.34397
usemtl None.003
f 1/1/1 2/2/2 3/3/2
f 1/1/1 3/3/2 4/4/3
f 4/5/4 3/6/4 5/7/4
f 4/5/4 5/7/4 6/8/4
f 6/9/5 5/10/6 7/11/7
f 5/10/6 8/12/6 7/11/7
f 7/13/8 8/14/8 2/15/8
f 7/13/8 2/15/8 1/16/8
f 5/17/9 3/18/9 2/19/9
f 5/17/9 2/19/9 8/20/9
f 9/21/10 10/22/10 11/23/10
f 10/22/10 12/24/10 11/23/10
f 10/22/11 13/25/11 14/26/11
f 10/22/11 14/26/11 12/24/11
f 13/25/12 15/27/12 16/28/12
f 13/25/12 16/28/12 14/26/12
f 15/27/13 7/13/13 16/28/13
f 7/13/13 1/16/13 16/28/13
f 17/29/14 18/30/15 9/31/14
f 18/30/15 10/32/16 9/31/14
f 18/30/15 19/33/17 13/34/18
f 18/30/15 13/34/18 10/32/16
f 19/33/17 20/35/19 15/36/20
f 19/33/17 15/36/20 13/34/18
f 20/35/19 6/9/5 15/36/20
f 6/9/5 7/11/7 15/36/20
f 21/37/21 22/38/22 18/39/23
f 21/37/21 18/39/23 17/40/21
f 22/38/22 23/41/24 18/39/23
f 23/41/24 19/42/24 18/39/23
f 23/41/25 24/43/25 20/44/25
f 23/41/25 20/44/25 19/42/25
f 24/43/26 4/5/26 6/8/26
f 24/43/26 6/8/26 20/44/26
f 11/45/27 12/46/28 22/47/29
f 11/45/27 22/47/29 21/48/27
f 12/46/28 14/49/30 22/47/29
f 14/49/30 23/50/31 22/47/29
f 14/49/30 16/51/32 23/50/31
f 16/51/32 24/52/33 23/50/31
f 16/51/32 1/1/1 4/4/3
f 16/51/32 4/4/3 24/52/33
f 25/53/34 26/54/6 5/55/6
f 25/53/34 5/55/6 27/56/35
f 27/57/36 5/58/36 3/59/36
f 27/57/36 3/59/36 28/60/36
f 28/61/37 3/62/2 29/63/38
f 3/62/2 30/64/2 29/63/38
f 29/65/39 30/66/39 26/67/39
f 29/65/39 26/67/39 25/68/39
f 3/18/9 5/17/9 26/7/9
f 3/18/9 26/7/9 30/69/9
f 31/70/40 32/71/40 33/72/40
f 31/70/40 33/72/40 34/73/40
f 32/71/41 35/74/41 36/75/41
f 32/71/41 36/75/41 33/72/41
f 35/74/42 37/76/42 36/75/42
f 37/76/42 38/77/42 36/75/42
f 37/76/43 29/65/43 25/68/43
f 37/76/43 25/68/43 38/77/43
f 39/78/44 40/79/45 31/3/44
f 40/79/45 32/80/46 31/3/44
f 40/79/45 41/81/47 35/82/48
f 40/79/45 35/82/48 32/80/46
f 41/81/47 42/83/49 37/84/50
f 41/81/47 37/84/50 35/82/48
f 42/83/49 28/61/37 37/84/50
f 28/61/37 29/63/38 37/84/50
f 43/85/51 44/86/52 39/87/51
f 44/86/52 40/88/53 39/87/51
f 44/86/52 45/89/54 41/90/54
f 44/86/52 41/90/54 40/88/53
f 45/89/55 46/91/55 42/92/55
f 45/89/55 42/92/55 41/90/55
f 46/91/56 27/57/56 28/60/56
f 46/91/56 28/60/56 42/92/56
f 34/93/57 33/94/58 44/95/59
f 34/93/57 44/95/59 43/96/57
f 33/94/58 36/97/60 44/95/59
f 36/97/60 45/98/61 44/95/59
f 36/97/60 38/99/62 45/98/61
f 38/99/62 46/100/63 45/98/61
f 38/99/62 25/53/34 27/56/35
f 38/99/62 27/56/35 46/100/63
s off
